<mxfile host="app.diagrams.net" modified="2024-03-15T21:28:45.939Z" agent="Mozilla/5.0 (Windows NT 10.0; Win64; x64) AppleWebKit/537.36 (KHTML, like Gecko) Chrome/122.0.0.0 Safari/537.36" etag="Pzn2cAWXQ31IO8dTxbTV" version="24.0.7" type="device">
  <diagram name="Страница — 1" id="0Fe31fzupErIYnQnvtf8">
    <mxGraphModel dx="1128" dy="655" grid="1" gridSize="10" guides="1" tooltips="1" connect="1" arrows="1" fold="1" page="1" pageScale="1" pageWidth="1169" pageHeight="827" math="0" shadow="0">
      <root>
        <mxCell id="0" />
        <mxCell id="1" parent="0" />
        <mxCell id="GLMFBdCi1oCmCL03dTun-25" value="" style="html=1;dropTarget=0;whiteSpace=wrap;fillColor=#d5e8d4;strokeColor=#82b366;" parent="1" vertex="1">
          <mxGeometry x="320" y="390" width="610" height="170" as="geometry" />
        </mxCell>
        <mxCell id="GLMFBdCi1oCmCL03dTun-1" value="&lt;div&gt;Авторизованный&lt;/div&gt;&lt;div&gt;пользователь&amp;nbsp;&lt;/div&gt;веб-сайта" style="shape=umlActor;verticalLabelPosition=bottom;verticalAlign=top;html=1;outlineConnect=0;" parent="1" vertex="1">
          <mxGeometry x="340" y="620" width="30" height="60" as="geometry" />
        </mxCell>
        <mxCell id="GLMFBdCi1oCmCL03dTun-23" value="Варианты использования" style="shape=umlFrame;whiteSpace=wrap;html=1;pointerEvents=0;width=210;height=20;" parent="1" vertex="1">
          <mxGeometry x="250" y="340" width="740" height="400" as="geometry" />
        </mxCell>
        <mxCell id="GLMFBdCi1oCmCL03dTun-48" value="&lt;u&gt;&lt;b&gt;Веб-сайт&lt;br&gt;&lt;/b&gt;&lt;/u&gt;" style="text;html=1;strokeColor=none;fillColor=none;align=center;verticalAlign=middle;whiteSpace=wrap;rounded=0;" parent="1" vertex="1">
          <mxGeometry x="822.5" y="390" width="107.5" height="30" as="geometry" />
        </mxCell>
        <mxCell id="irt0PZdEbjW146X8YQon-3" value="Запрос&amp;nbsp;&lt;span style=&quot;background-color: initial;&quot;&gt;восстановления пароля&lt;/span&gt;" style="ellipse;whiteSpace=wrap;html=1;fillColor=#ffe6cc;strokeColor=#d79b00;" parent="1" vertex="1">
          <mxGeometry x="715" y="510" width="210" height="40" as="geometry" />
        </mxCell>
        <mxCell id="irt0PZdEbjW146X8YQon-6" value="" style="endArrow=none;html=1;rounded=0;" parent="1" source="HrgQDwjkppDf7GSTo6zU-1" target="irt0PZdEbjW146X8YQon-3" edge="1">
          <mxGeometry width="50" height="50" relative="1" as="geometry">
            <mxPoint x="625" y="620" as="sourcePoint" />
            <mxPoint x="340" y="265" as="targetPoint" />
          </mxGeometry>
        </mxCell>
        <mxCell id="unNFKNlllrOrlXyUxfCF-4" style="rounded=0;orthogonalLoop=1;jettySize=auto;html=1;endArrow=none;endFill=0;" edge="1" parent="1" source="HrgQDwjkppDf7GSTo6zU-1" target="unNFKNlllrOrlXyUxfCF-3">
          <mxGeometry relative="1" as="geometry" />
        </mxCell>
        <mxCell id="HrgQDwjkppDf7GSTo6zU-1" value="&lt;div style=&quot;border-color: var(--border-color);&quot;&gt;Неавторизованный&lt;/div&gt;&lt;div style=&quot;border-color: var(--border-color);&quot;&gt;пользователь&amp;nbsp;&lt;/div&gt;веб-сайта" style="shape=umlActor;verticalLabelPosition=bottom;verticalAlign=top;html=1;outlineConnect=0;" parent="1" vertex="1">
          <mxGeometry x="554" y="620" width="30" height="60" as="geometry" />
        </mxCell>
        <mxCell id="HrgQDwjkppDf7GSTo6zU-4" value="Регистрация в системе" style="ellipse;whiteSpace=wrap;html=1;fillColor=#ffe6cc;strokeColor=#d79b00;" parent="1" vertex="1">
          <mxGeometry x="525" y="430" width="190" height="40" as="geometry" />
        </mxCell>
        <mxCell id="HrgQDwjkppDf7GSTo6zU-5" value="" style="endArrow=none;html=1;rounded=0;" parent="1" source="HrgQDwjkppDf7GSTo6zU-1" target="HrgQDwjkppDf7GSTo6zU-4" edge="1">
          <mxGeometry width="50" height="50" relative="1" as="geometry">
            <mxPoint x="745" y="630" as="sourcePoint" />
            <mxPoint x="745" y="505" as="targetPoint" />
          </mxGeometry>
        </mxCell>
        <mxCell id="72SXcvp0IRsBHyvKBmVa-1" value="Вход в систему" style="ellipse;whiteSpace=wrap;html=1;fillColor=#ffe6cc;strokeColor=#d79b00;" parent="1" vertex="1">
          <mxGeometry x="400" y="510" width="190" height="40" as="geometry" />
        </mxCell>
        <mxCell id="72SXcvp0IRsBHyvKBmVa-2" value="" style="endArrow=none;html=1;rounded=0;" parent="1" source="HrgQDwjkppDf7GSTo6zU-1" target="72SXcvp0IRsBHyvKBmVa-1" edge="1">
          <mxGeometry width="50" height="50" relative="1" as="geometry">
            <mxPoint x="745" y="630" as="sourcePoint" />
            <mxPoint x="744" y="490" as="targetPoint" />
          </mxGeometry>
        </mxCell>
        <mxCell id="pD_4fEc41mu84IMxWd5d-1" value="Выход из системы" style="ellipse;whiteSpace=wrap;html=1;fillColor=#ffe6cc;strokeColor=#d79b00;" parent="1" vertex="1">
          <mxGeometry x="330" y="455" width="146.25" height="40" as="geometry" />
        </mxCell>
        <mxCell id="pD_4fEc41mu84IMxWd5d-2" value="" style="endArrow=none;html=1;rounded=0;" parent="1" source="GLMFBdCi1oCmCL03dTun-1" target="pD_4fEc41mu84IMxWd5d-1" edge="1">
          <mxGeometry width="50" height="50" relative="1" as="geometry">
            <mxPoint x="939" y="630" as="sourcePoint" />
            <mxPoint x="960" y="490" as="targetPoint" />
          </mxGeometry>
        </mxCell>
        <mxCell id="1dqQFuxVnDeENYgo77la-1" value="Почтовый сервер&lt;br&gt;&lt;div style=&quot;border-color: var(--border-color);&quot;&gt;&lt;/div&gt;" style="shape=umlActor;verticalLabelPosition=bottom;verticalAlign=top;html=1;outlineConnect=0;" parent="1" vertex="1">
          <mxGeometry x="840" y="620" width="30" height="60" as="geometry" />
        </mxCell>
        <mxCell id="1dqQFuxVnDeENYgo77la-2" value="" style="endArrow=none;html=1;rounded=0;" parent="1" source="irt0PZdEbjW146X8YQon-3" target="1dqQFuxVnDeENYgo77la-1" edge="1">
          <mxGeometry width="50" height="50" relative="1" as="geometry">
            <mxPoint x="745" y="469" as="sourcePoint" />
            <mxPoint x="620" y="343" as="targetPoint" />
          </mxGeometry>
        </mxCell>
        <mxCell id="unNFKNlllrOrlXyUxfCF-3" value="Восстановление пароля по ссылке" style="ellipse;whiteSpace=wrap;html=1;fillColor=#ffe6cc;strokeColor=#d79b00;" vertex="1" parent="1">
          <mxGeometry x="660" y="470" width="190" height="40" as="geometry" />
        </mxCell>
      </root>
    </mxGraphModel>
  </diagram>
</mxfile>
